<?xml version="1.0" encoding="utf-8"?>
<!-- Generator: Adobe Illustrator 22.1.0, SVG Export Plug-In . SVG Version: 6.00 Build 0)  -->
<svg version="1.1" id="Layer_1" xmlns="http://www.w3.org/2000/svg" xmlns:xlink="http://www.w3.org/1999/xlink" x="0px" y="0px"
	 viewBox="0 0 221.8 114.8" style="enable-background:new 0 0 221.8 114.8;" xml:space="preserve">
<style type="text/css">
	.st0{clip-path:url(#SVGID_2_);}
</style>
<title>Asset 2</title>
<g id="Layer_2_1_">
	<g id="Layer_1-2">
		<g>
			<defs>
				<rect id="SVGID_1_" y="0" width="221.8" height="172"/>
			</defs>
			<clipPath id="SVGID_2_">
				<use xlink:href="#SVGID_1_"  style="overflow:visible;"/>
			</clipPath>
			<g class="st0">
				<path d="M14.7,112.6h-0.3c-0.3,0.1-0.5,0.2-0.7,0.3c-0.4,0.2-0.9,0.4-1.4,0.7c-0.6,0.3-1.3,0.5-2,0.6c-0.8,0.2-1.5,0.3-2.3,0.3
					c-1,0-2-0.1-3-0.4c-0.9-0.2-1.8-0.7-2.6-1.2c-0.7-0.5-1.3-1.3-1.8-2.1c-1.4-2.7-0.7-6,1.8-7.9c0.8-0.6,1.7-1,2.6-1.3
					c1-0.3,2-0.4,3-0.4c0.8,0,1.5,0.1,2.3,0.2c0.7,0.1,1.3,0.3,1.8,0.4c0.4,0.1,0.8,0.2,1.2,0.4c0.2,0.1,0.4,0.2,0.6,0.2
					c0.1,0,0.2,0,0.2-0.1c0-0.1,0.1-0.1,0.1-0.2l0.4,0.3l-1.9,3l-0.2-0.2c0,0,0-0.1,0-0.2c0-0.1,0-0.1,0-0.2c0-0.2-0.2-0.4-0.5-0.6
					c-0.3-0.2-0.7-0.4-1.1-0.5c-0.5-0.1-0.9-0.3-1.4-0.4c-0.5-0.1-0.9-0.2-1.4-0.2c-0.7,0-1.4,0.1-2,0.3c-0.6,0.2-1.2,0.5-1.7,0.9
					c-1.8,1.4-2.1,4.1-0.7,5.9c0.2,0.3,0.4,0.5,0.7,0.7c0.5,0.4,1.1,0.7,1.7,0.9c0.6,0.2,1.3,0.3,2,0.3c0.6,0,1.1-0.1,1.7-0.2
					c0.5-0.1,1.1-0.3,1.6-0.5c0.4-0.2,0.8-0.4,1.2-0.6c0.3-0.2,0.5-0.5,0.5-0.7c0-0.1,0-0.2-0.1-0.3l0.4-0.2l1.6,2.6L14.7,112.6z"/>
				<path d="M29.1,107.2c0.5,0,1,0,1.5-0.1c0.3-0.1,0.7-0.2,1-0.4c0.2-0.1,0.4-0.3,0.5-0.6c0.1-0.2,0.2-0.5,0.2-0.7
					c0-0.3,0-0.5-0.2-0.7c-0.1-0.2-0.3-0.4-0.5-0.6c-0.3-0.2-0.6-0.3-1-0.4c-0.5-0.1-1-0.1-1.5-0.1h-4.3v3.7H29.1z M29.7,101.4
					c0.7,0,1.5,0.1,2.2,0.2c0.6,0.1,1.2,0.3,1.7,0.7c0.5,0.3,0.8,0.7,1.1,1.2c0.3,0.6,0.4,1.2,0.4,1.8c0.1,0.9-0.3,1.9-1,2.5
					c-0.7,0.6-1.7,1-2.6,1.2l3.3,4.7c0.1,0.1,0.2,0.3,0.4,0.3c0.1,0,0.3,0,0.4,0.1v0.4h-4.6v-0.4c0.1,0,0.3,0,0.4-0.1
					c0.1,0,0.2-0.1,0.2-0.2c0-0.1,0-0.2-0.1-0.3l-0.3-0.4l-2.8-3.9h-3.6v4.4c0,0.1,0.1,0.3,0.2,0.3c0.2,0.1,0.4,0.1,0.6,0.1v0.4
					h-4.3v-0.4c0.5,0,0.7-0.1,0.7-0.4v-11.2c0-0.3-0.2-0.4-0.7-0.4v-0.4H29.7z"/>
				<path d="M45.2,101.4v0.4c-0.1,0-0.3,0-0.4,0.1c-0.1,0-0.2,0.2-0.2,0.3c0.1,0.3,0.2,0.5,0.4,0.7c0.2,0.4,0.5,0.8,0.8,1.3l1,1.4
					c0.3,0.5,0.6,0.9,0.8,1.3l2.9-4l0.3-0.5c0.1-0.1,0.1-0.2,0.1-0.3c0-0.1-0.1-0.2-0.2-0.2c-0.1,0-0.3,0-0.4,0v-0.4h4.4v0.4
					c-0.1,0-0.2,0-0.4,0c-0.1,0-0.2,0.1-0.3,0.2c-0.2,0.1-0.3,0.2-0.4,0.4c-0.2,0.2-0.4,0.5-0.5,0.7l-4.2,6v4.4
					c0,0.3,0.2,0.4,0.6,0.4v0.4h-4V114c0.1,0,0.3,0,0.4-0.1c0.1-0.1,0.2-0.2,0.2-0.3v-4.4l-4.8-6.7c-0.1-0.2-0.3-0.3-0.5-0.4
					c-0.2-0.1-0.4-0.2-0.6-0.2v-0.4L45.2,101.4z"/>
				<path d="M60.6,110.3l0.2,0.1c0,0.1,0,0.3,0.1,0.4c0.2,0.3,0.4,0.5,0.7,0.6c0.4,0.2,0.8,0.4,1.2,0.5c0.5,0.2,0.9,0.3,1.4,0.4
					c0.4,0.1,0.9,0.1,1.3,0.1c0.3,0,0.7,0,1.1-0.1c0.4,0,0.9-0.1,1.3-0.3c0.4-0.1,0.8-0.3,1.1-0.5c0.3-0.2,0.5-0.6,0.5-0.9
					c0-0.3-0.1-0.7-0.4-0.8c-0.4-0.2-0.7-0.3-1.2-0.4c-0.5-0.1-1.1-0.1-1.6-0.2c-0.6,0-1.2-0.1-1.9-0.1s-1.2-0.1-1.9-0.2
					c-0.6-0.1-1.1-0.3-1.6-0.6c-0.5-0.3-0.9-0.7-1.2-1.1c-0.6-1-0.6-2.3-0.1-3.3c0.3-0.5,0.7-1,1.1-1.3c0.6-0.4,1.2-0.7,1.9-0.9
					c0.9-0.3,1.8-0.4,2.7-0.4c0.8,0,1.5,0.1,2.3,0.2c0.6,0.1,1.1,0.2,1.7,0.4c0.4,0.1,0.8,0.3,1.2,0.4c0.3,0.1,0.5,0.2,0.8,0.2
					c0.2,0,0.4,0,0.5-0.1l0.3,0.2l-1.7,3.1l-0.2-0.1c0-0.2-0.1-0.4-0.2-0.6c-0.2-0.2-0.4-0.4-0.7-0.6c-0.3-0.2-0.7-0.4-1.1-0.5
					c-0.4-0.2-0.9-0.3-1.3-0.4c-0.5-0.1-1-0.1-1.4-0.1c-0.4,0-0.8,0-1.1,0.1c-0.4,0.1-0.7,0.1-1.1,0.3c-0.3,0.1-0.6,0.3-0.8,0.5
					c-0.2,0.2-0.3,0.4-0.3,0.7c0,0.4,0.1,0.7,0.4,0.9c0.3,0.2,0.7,0.4,1.2,0.4c0.5,0.1,1.1,0.2,1.6,0.2l1.9,0.1
					c0.6,0.1,1.2,0.1,1.9,0.3c0.6,0.1,1.1,0.3,1.6,0.6c0.5,0.3,0.9,0.6,1.2,1.1c0.3,0.6,0.5,1.2,0.4,1.8c0,0.8-0.2,1.5-0.7,2.1
					c-0.5,0.5-1,1-1.7,1.3c-0.7,0.3-1.4,0.5-2.2,0.6c-0.7,0.1-1.5,0.2-2.2,0.2c-0.8,0-1.6,0-2.4-0.2c-0.5-0.1-1.1-0.2-1.6-0.4
					c-0.4-0.2-0.8-0.3-1-0.4c-0.2-0.1-0.4-0.2-0.7-0.2c-0.1,0-0.3,0.1-0.3,0.2l-0.3-0.2L60.6,110.3z"/>
				<path d="M85.7,113.5c0,0.3,0.2,0.4,0.6,0.4v0.4h-3.9v-0.4c0.1,0,0.2,0,0.3-0.1c0.1-0.1,0.1-0.2,0.1-0.3v-9.8h-4.1
					c-0.2,0-0.3,0-0.4,0.1c-0.2,0.1-0.2,0.3-0.2,0.5h-0.4v-3.5H78c0,0.2,0.1,0.4,0.2,0.5c0.1,0.1,0.3,0.1,0.4,0.1h11.1
					c0.2,0,0.3,0,0.4-0.1c0.2-0.1,0.2-0.3,0.2-0.5h0.4v3.5h-0.4c0-0.2-0.1-0.4-0.2-0.5c-0.1-0.1-0.3-0.1-0.4-0.1h-4.1V113.5z"/>
				<path d="M104.3,109.3l-2.1-4.6l-2.3,4.6H104.3z M94.9,113.9c0.2,0,0.4-0.1,0.5-0.3c0.1-0.2,0.3-0.4,0.4-0.6l4.6-9.6
					c0.1-0.2,0.2-0.4,0.3-0.6c0.1-0.1,0.1-0.3,0.1-0.5c0-0.1,0-0.3-0.2-0.3c-0.1-0.1-0.2-0.1-0.4-0.2v-0.4h4.2v0.4
					c-0.1,0-0.2,0.1-0.3,0.1c-0.1,0.1-0.2,0.2-0.2,0.4c0,0.1,0,0.3,0.1,0.4c0.1,0.1,0.1,0.3,0.3,0.5l5.2,10.1
					c0.1,0.2,0.2,0.3,0.3,0.4l0.5,0.2v0.4H106v-0.4c0.1,0,0.2,0,0.2-0.1c0.1,0,0.2-0.1,0.2-0.2c0-0.2-0.1-0.4-0.2-0.6l-1-1.8h-6.1
					l-0.9,1.8c-0.1,0.2-0.2,0.5-0.2,0.7c0,0.2,0.2,0.3,0.5,0.3v0.4h-3.6V113.9z"/>
				<path d="M127.9,114.8c0-0.2-0.1-0.4-0.2-0.4c-0.2,0-0.4,0-0.6,0h-11.9V114c0.5,0,0.8-0.2,0.8-0.4v-11.3c0-0.3-0.2-0.4-0.8-0.4
					v-0.4h4.3v0.4c-0.5,0-0.7,0.2-0.7,0.4v9.8h8.3c0.2,0,0.4-0.1,0.6-0.2c0.2-0.1,0.2-0.3,0.2-0.5h0.5v3.4L127.9,114.8z"/>
				<path d="M146.1,101.8c-0.2,0-0.4,0.2-0.4,0.5c0,0.1,0,0.2,0,0.3c0,0.1,0.1,0.3,0.2,0.6l2.7,6.9h0.1l2.6-7
					c0.1-0.2,0.1-0.4,0.2-0.5c0-0.1,0-0.2,0-0.3c0-0.3-0.1-0.5-0.3-0.5v-0.4h4.3v0.4c-0.1,0-0.2,0-0.2,0.1c0,0.1-0.1,0.2-0.1,0.3
					c0,0.3,0.1,0.6,0.2,0.8l2.7,7h0.1l2.7-7.1c0.1-0.2,0.2-0.4,0.2-0.7c0-0.1,0-0.2-0.1-0.3c-0.1-0.1-0.2-0.1-0.3-0.1v-0.4h3.7v0.4
					c-0.2,0-0.4,0.1-0.4,0.3c-0.1,0.2-0.2,0.4-0.3,0.7l-3.6,9.4c-0.1,0.3-0.2,0.5-0.3,0.7c-0.1,0.2-0.1,0.3-0.1,0.5
					c0,0.1,0,0.2,0.1,0.3c0.1,0.1,0.2,0.1,0.4,0.1v0.4H156v-0.4l0.3-0.2c0.1-0.1,0.2-0.2,0.2-0.3c0-0.2,0-0.3-0.1-0.4
					c0-0.2-0.1-0.4-0.3-0.7l-2.9-7.3l0,0l-2.7,7.1c-0.2,0.4-0.3,0.8-0.4,1.2c0,0.2,0.1,0.4,0.3,0.5v0.4h-3.9v-0.4
					c0.1,0,0.2,0,0.3-0.1c0.1,0,0.2-0.1,0.1-0.2c0-0.1,0-0.3-0.1-0.4c-0.1-0.1-0.1-0.3-0.2-0.5l-4-10.2c-0.1-0.2-0.1-0.3-0.2-0.4
					c-0.1-0.1-0.2-0.2-0.4-0.2v-0.4h3.9L146.1,101.8z"/>
				<path d="M177.2,103.5c-0.6,0-1.3,0.1-1.9,0.3c-0.6,0.2-1.2,0.5-1.7,0.8c-0.5,0.4-0.9,0.8-1.2,1.4c-0.6,1.2-0.6,2.5,0,3.7
					c0.3,0.5,0.7,1,1.2,1.4c0.5,0.4,1.1,0.7,1.7,0.8c1.2,0.4,2.6,0.4,3.8,0c0.6-0.2,1.2-0.5,1.7-0.8c0.5-0.4,0.9-0.8,1.2-1.4
					c0.6-1.2,0.6-2.5,0-3.7c-0.3-0.5-0.7-1-1.2-1.4c-0.5-0.4-1.1-0.7-1.7-0.8C178.5,103.6,177.8,103.5,177.2,103.5 M177.2,101.2
					c0.9,0,1.9,0.1,2.8,0.4c0.9,0.3,1.8,0.7,2.6,1.2c0.8,0.5,1.4,1.2,1.9,2.1c0.5,0.9,0.8,1.9,0.8,3c0,1-0.2,2.1-0.8,2.9
					c-0.5,0.8-1.1,1.5-1.9,2.1c-0.8,0.5-1.7,0.9-2.6,1.2c-1.8,0.5-3.8,0.5-5.6,0c-0.9-0.2-1.8-0.6-2.6-1.2c-0.8-0.5-1.4-1.2-1.9-2.1
					c-0.5-0.9-0.8-1.9-0.8-2.9c0-1.1,0.2-2.1,0.8-3c0.5-0.8,1.1-1.5,1.9-2.1c0.8-0.5,1.7-1,2.6-1.2
					C175.3,101.4,176.2,101.2,177.2,101.2"/>
				<path d="M203.7,114.8c0-0.2-0.1-0.4-0.2-0.4c-0.2,0-0.4,0-0.6,0H191V114c0.5,0,0.8-0.2,0.8-0.4v-11.3c0-0.3-0.2-0.4-0.8-0.4
					v-0.4h4.3v0.4c-0.5,0-0.7,0.2-0.7,0.4v9.8h8.3c0.2,0,0.4-0.1,0.6-0.2c0.2-0.1,0.2-0.3,0.2-0.5h0.4v3.4L203.7,114.8z"/>
				<path d="M221.3,104c0-0.2-0.1-0.3-0.2-0.4c-0.2-0.1-0.5-0.2-0.7-0.1h-8.1v3.1h4.9c0.3,0,0.5,0,0.8-0.1c0.2-0.1,0.3-0.2,0.3-0.4
					h0.4v3.6h-0.4c0-0.4-0.1-0.6-0.3-0.7c-0.2-0.1-0.5-0.2-0.8-0.2h-4.9v4.8c0,0.1,0.1,0.3,0.2,0.3c0.2,0.1,0.3,0.1,0.5,0.1v0.4
					h-4.2v-0.4c0.4,0,0.6-0.2,0.6-0.4v-11.2c0-0.3-0.2-0.4-0.6-0.4v-0.4h11.6c0.3,0,0.5,0,0.7-0.2c0.1-0.1,0.2-0.3,0.2-0.4h0.4v3.2
					H221.3z"/>
				<path d="M125.2,51.9l-12.7,18c-3.1,0.5-11.4,2.6-19.5,2.6c-25.5,0-38.5-17.6-38.5-35.6C54.4,14,71.2,0,95.4,0
					c8.7,0,16.1,2,19.6,2.5c0.4,4.8,1.2,11.3,2,16.6l-3.3,0.8c-2.1-7.2-4.9-11.8-10.3-14.1C100.6,4.5,96.7,4,92.7,4
					C74.8,4,65.5,18.3,65.5,34.6c0,20.6,14.4,33.8,24.9,33.8c12.9,0,18.5-18.3,26.9-28L125.2,51.9z"/>
			</g>
		</g>
		<polygon points="128.5,47.3 121,36.5 128.5,25.6 136,36.5 		"/>
		<polygon points="167.4,0.6 143.9,70.5 131.3,51.9 		"/>
	</g>
</g>
</svg>
