<?xml version="1.0" encoding="utf-8"?>
<!-- Generator: Adobe Illustrator 22.1.0, SVG Export Plug-In . SVG Version: 6.00 Build 0)  -->
<svg version="1.1" id="Layer_1" xmlns="http://www.w3.org/2000/svg" xmlns:xlink="http://www.w3.org/1999/xlink" x="0px" y="0px"
	 viewBox="0 0 240.7 34.3" style="enable-background:new 0 0 240.7 34.3;" xml:space="preserve">
<style type="text/css">
	.st0{clip-path:url(#SVGID_2_);}
</style>
<title>Asset 2</title>
<g>
	<defs>
		<rect id="SVGID_1_" x="0.4" width="238.6" height="34.3"/>
	</defs>
	<clipPath id="SVGID_2_">
		<use xlink:href="#SVGID_1_"  style="overflow:visible;"/>
	</clipPath>
	<path class="st0" d="M77.5,21c0,0-0.1,0-0.1,0c0,0-0.1,0-0.1,0c-0.1,0-0.3,0.1-0.6,0.2s-0.7,0.3-1.1,0.5c-0.4,0.2-1,0.4-1.5,0.5
		c-0.6,0.1-1.2,0.2-1.8,0.2c-0.8,0-1.6-0.1-2.4-0.3c-0.8-0.2-1.4-0.5-2-1c-0.6-0.4-1-1-1.4-1.6c-0.3-0.6-0.5-1.4-0.5-2.3
		c0-0.9,0.2-1.6,0.5-2.3c0.3-0.7,0.8-1.2,1.4-1.6c0.6-0.4,1.2-0.8,2-1c0.8-0.2,1.5-0.3,2.4-0.3c0.7,0,1.3,0.1,1.8,0.2
		c0.5,0.1,1,0.2,1.4,0.3c0.4,0.1,0.7,0.2,1,0.3s0.4,0.2,0.4,0.2c0.1,0,0.1,0,0.2-0.1c0-0.1,0.1-0.1,0.1-0.2l0.3,0.2L76,15.4
		l-0.2-0.1c0,0,0-0.1,0-0.1c0,0,0-0.1,0-0.1c0-0.1-0.2-0.3-0.4-0.4c-0.2-0.1-0.5-0.3-0.9-0.4c-0.3-0.1-0.7-0.2-1.1-0.3
		c-0.4-0.1-0.7-0.1-1.1-0.1c-0.5,0-1.1,0.1-1.6,0.2c-0.5,0.2-0.9,0.4-1.3,0.7c-0.4,0.3-0.7,0.7-0.9,1.1c-0.2,0.4-0.3,0.9-0.3,1.5
		c0,0.6,0.1,1.1,0.3,1.5c0.2,0.4,0.5,0.8,0.9,1.1c0.4,0.3,0.8,0.5,1.3,0.7c0.5,0.2,1,0.2,1.6,0.2c0.4,0,0.9,0,1.3-0.1
		c0.5-0.1,0.9-0.2,1.2-0.4c0.4-0.1,0.7-0.3,0.9-0.5c0.3-0.2,0.4-0.4,0.4-0.5c0-0.1,0-0.2-0.1-0.2l0.3-0.2l1.3,2.1L77.5,21z"/>
	<path class="st0" d="M88.8,16.7c0.5,0,0.9,0,1.2-0.1c0.3-0.1,0.6-0.2,0.7-0.3c0.2-0.1,0.3-0.3,0.4-0.5c0.1-0.2,0.1-0.4,0.1-0.6
		s0-0.4-0.1-0.6c-0.1-0.2-0.2-0.3-0.4-0.5c-0.2-0.1-0.4-0.2-0.7-0.3c-0.3-0.1-0.7-0.1-1.2-0.1h-3.4v2.9H88.8z M89.3,12.2
		c0.6,0,1.2,0.1,1.7,0.2c0.5,0.1,0.9,0.3,1.3,0.5c0.4,0.2,0.6,0.6,0.8,0.9c0.2,0.4,0.3,0.9,0.3,1.4c0,0.9-0.3,1.5-0.8,2
		c-0.5,0.5-1.2,0.8-2,0.9l2.6,3.7c0.1,0.1,0.2,0.2,0.3,0.2c0.1,0,0.2,0,0.3,0v0.4h-3.6v-0.4c0.1,0,0.2,0,0.3-0.1
		c0.1,0,0.1-0.1,0.1-0.2c0-0.1,0-0.1-0.1-0.2c-0.1-0.1-0.1-0.2-0.2-0.3l-2.1-3h-2.8v3.5c0,0.1,0,0.2,0.1,0.3
		c0.1,0.1,0.2,0.1,0.5,0.1v0.4h-3.4v-0.4c0.4,0,0.6-0.1,0.6-0.4v-8.8c0-0.2-0.2-0.4-0.6-0.4v-0.4H89.3z"/>
	<path class="st0" d="M101.3,12.2v0.4c-0.1,0-0.2,0-0.3,0c-0.1,0-0.2,0.1-0.2,0.2c0,0.1,0.1,0.3,0.3,0.6c0.2,0.3,0.4,0.6,0.7,1
		c0.3,0.4,0.5,0.8,0.8,1.1c0.3,0.4,0.5,0.7,0.7,1l2.3-3.1c0.1-0.2,0.2-0.3,0.3-0.4c0.1-0.1,0.1-0.2,0.1-0.3c0-0.1-0.1-0.1-0.2-0.2
		c-0.1,0-0.2,0-0.3,0v-0.4h3.4v0.4c-0.1,0-0.2,0-0.3,0c-0.1,0-0.2,0.1-0.3,0.1c-0.1,0.1-0.2,0.2-0.3,0.3c-0.1,0.1-0.2,0.3-0.4,0.6
		l-3.3,4.7v3.5c0,0.2,0.1,0.4,0.4,0.4v0.4h-3.1v-0.4c0.1,0,0.2,0,0.3-0.1c0.1-0.1,0.1-0.1,0.1-0.3v-3.5L98.2,13
		c-0.1-0.1-0.2-0.2-0.4-0.3c-0.2-0.1-0.3-0.1-0.5-0.1v-0.4H101.3z"/>
	<path class="st0" d="M113.4,19.2l0.2,0.1c0,0.1,0,0.2,0.1,0.3c0.1,0.2,0.3,0.3,0.5,0.5c0.3,0.1,0.6,0.3,0.9,0.4
		c0.3,0.1,0.7,0.2,1.1,0.3c0.4,0.1,0.7,0.1,1,0.1c0.2,0,0.5,0,0.9,0c0.3,0,0.7-0.1,1-0.2c0.3-0.1,0.6-0.2,0.9-0.4
		c0.2-0.2,0.4-0.4,0.4-0.7c0-0.3-0.1-0.5-0.3-0.7c-0.2-0.1-0.5-0.2-0.9-0.3c-0.4-0.1-0.8-0.1-1.3-0.1c-0.5,0-1,0-1.5-0.1
		c-0.5,0-1-0.1-1.5-0.2s-0.9-0.2-1.3-0.5c-0.4-0.2-0.7-0.5-0.9-0.9c-0.2-0.4-0.3-0.9-0.3-1.5c0-0.4,0.1-0.8,0.3-1.2
		c0.2-0.4,0.5-0.7,0.9-1c0.4-0.3,0.9-0.5,1.5-0.7c0.6-0.2,1.3-0.3,2.1-0.3c0.7,0,1.3,0.1,1.8,0.2c0.5,0.1,0.9,0.2,1.3,0.3
		c0.4,0.1,0.7,0.2,0.9,0.3c0.3,0.1,0.5,0.2,0.6,0.2c0.2,0,0.3,0,0.4-0.1l0.2,0.2l-1.3,2.4l-0.2-0.1c0-0.2-0.1-0.3-0.2-0.4
		c-0.1-0.2-0.3-0.3-0.5-0.5c-0.2-0.1-0.5-0.3-0.8-0.4c-0.3-0.1-0.7-0.2-1.1-0.3c-0.4-0.1-0.8-0.1-1.1-0.1c-0.3,0-0.6,0-0.9,0.1
		c-0.3,0-0.6,0.1-0.8,0.2c-0.2,0.1-0.5,0.2-0.6,0.4s-0.2,0.3-0.2,0.6c0,0.3,0.1,0.5,0.3,0.7c0.2,0.2,0.5,0.3,0.9,0.4
		c0.4,0.1,0.8,0.1,1.3,0.2c0.5,0,1,0.1,1.5,0.1c0.5,0,1,0.1,1.5,0.2s0.9,0.3,1.3,0.5c0.4,0.2,0.7,0.5,0.9,0.9
		c0.2,0.4,0.3,0.8,0.3,1.4c0,0.7-0.2,1.2-0.5,1.7c-0.4,0.4-0.8,0.8-1.3,1c-0.5,0.2-1.1,0.4-1.7,0.5c-0.6,0.1-1.2,0.1-1.7,0.1
		c-0.7,0-1.4,0-1.9-0.1c-0.5-0.1-0.9-0.2-1.2-0.3c-0.3-0.1-0.6-0.2-0.8-0.3c-0.2-0.1-0.4-0.1-0.5-0.1c-0.1,0-0.2,0.1-0.3,0.2
		l-0.3-0.2L113.4,19.2z"/>
	<path class="st0" d="M132.9,21.7c0,0.2,0.1,0.4,0.4,0.4v0.4h-3v-0.4c0.1,0,0.2,0,0.2-0.1c0.1-0.1,0.1-0.1,0.1-0.3V14h-3.2
		c-0.1,0-0.2,0-0.3,0.1s-0.2,0.2-0.2,0.4h-0.4v-2.7h0.4c0,0.2,0.1,0.3,0.2,0.4c0.1,0.1,0.2,0.1,0.3,0.1h8.6c0.1,0,0.2,0,0.3-0.1
		c0.1-0.1,0.2-0.2,0.2-0.4h0.4v2.7h-0.4c0-0.2-0.1-0.3-0.2-0.4s-0.2-0.1-0.3-0.1h-3.2V21.7z"/>
	<path class="st0" d="M147.5,18.4l-1.6-3.6l-1.8,3.6H147.5z M140.1,22.1c0.2,0,0.3-0.1,0.4-0.3c0.1-0.1,0.2-0.3,0.3-0.5l3.6-7.6
		c0.1-0.2,0.2-0.3,0.2-0.5c0.1-0.1,0.1-0.3,0.1-0.4c0-0.1,0-0.2-0.1-0.3c-0.1-0.1-0.2-0.1-0.3-0.1v-0.4h3.3v0.4
		c-0.1,0-0.2,0.1-0.3,0.1c-0.1,0-0.1,0.1-0.1,0.3c0,0.1,0,0.2,0.1,0.3c0,0.1,0.1,0.2,0.2,0.4l4.1,7.9c0.1,0.1,0.2,0.2,0.3,0.3
		c0.1,0.1,0.2,0.1,0.4,0.2v0.4h-3.4v-0.4c0.1,0,0.1,0,0.2-0.1c0.1,0,0.1-0.1,0.1-0.2c0-0.1-0.1-0.3-0.2-0.5l-0.7-1.4h-4.8l-0.7,1.4
		c-0.1,0.3-0.2,0.5-0.2,0.6c0,0.1,0.1,0.2,0.4,0.2v0.4h-2.8V22.1z"/>
	<path class="st0" d="M165.8,22.8c0-0.2-0.1-0.3-0.2-0.3c-0.1,0-0.3,0-0.5,0h-9.3v-0.4c0.4,0,0.6-0.1,0.6-0.3v-8.8
		c0-0.2-0.2-0.4-0.6-0.4v-0.4h3.4v0.4c-0.4,0-0.5,0.1-0.5,0.4v7.8h6.5c0.2,0,0.4,0,0.5-0.1c0.1-0.1,0.2-0.2,0.2-0.4h0.4v2.7H165.8z"
		/>
	<path class="st0" d="M180,12.5c-0.2,0-0.3,0.1-0.3,0.4c0,0.1,0,0.1,0,0.2c0,0.1,0.1,0.2,0.1,0.4L182,19h0l2.1-5.5
		c0.1-0.2,0.1-0.3,0.1-0.4c0-0.1,0-0.2,0-0.2c0-0.2-0.1-0.4-0.3-0.4v-0.3h3.3v0.3c-0.1,0-0.2,0-0.2,0.1c0,0.1-0.1,0.1-0.1,0.2
		c0,0.1,0.1,0.4,0.2,0.7l2.1,5.5h0l2.1-5.6c0.1-0.2,0.1-0.4,0.1-0.5c0-0.1,0-0.2-0.1-0.2c-0.1-0.1-0.1-0.1-0.2-0.1v-0.3h2.9v0.3
		c-0.1,0-0.2,0.1-0.3,0.2c-0.1,0.2-0.2,0.4-0.2,0.6l-2.8,7.4c-0.1,0.2-0.1,0.4-0.2,0.5c-0.1,0.2-0.1,0.3-0.1,0.4
		c0,0.1,0,0.2,0.1,0.2c0.1,0.1,0.2,0.1,0.3,0.1v0.4h-3.1v-0.4c0.1,0,0.2-0.1,0.2-0.1c0.1-0.1,0.1-0.1,0.1-0.2c0-0.1,0-0.2-0.1-0.4
		c0-0.1-0.1-0.3-0.2-0.5l-2.2-5.7h0l-2.1,5.6c-0.2,0.5-0.3,0.8-0.3,1c0,0.2,0.1,0.3,0.3,0.4v0.4h-3v-0.4c0.1,0,0.2,0,0.2-0.1
		c0.1,0,0.1-0.1,0.1-0.2c0-0.1,0-0.2-0.1-0.3c0-0.1-0.1-0.2-0.1-0.4l-3.1-8c-0.1-0.1-0.1-0.3-0.2-0.4c-0.1-0.1-0.2-0.2-0.3-0.2v-0.3
		h3V12.5z"/>
	<path class="st0" d="M204.3,13.8c-0.5,0-1,0.1-1.5,0.2c-0.5,0.2-0.9,0.4-1.3,0.7s-0.7,0.7-1,1.1c-0.2,0.4-0.4,0.9-0.4,1.5
		c0,0.5,0.1,1,0.4,1.5c0.2,0.4,0.6,0.8,1,1.1s0.8,0.5,1.3,0.7s1,0.2,1.5,0.2c0.5,0,1-0.1,1.5-0.2c0.5-0.2,0.9-0.4,1.3-0.7
		s0.7-0.7,1-1.1c0.2-0.4,0.4-0.9,0.4-1.5c0-0.5-0.1-1-0.4-1.5c-0.2-0.4-0.6-0.8-1-1.1s-0.8-0.5-1.3-0.7
		C205.3,13.9,204.8,13.8,204.3,13.8 M204.3,12c0.7,0,1.4,0.1,2.2,0.3c0.7,0.2,1.4,0.5,2,1c0.6,0.4,1.1,1,1.5,1.6
		c0.4,0.7,0.6,1.4,0.6,2.3c0,0.9-0.2,1.7-0.6,2.3c-0.4,0.7-0.9,1.2-1.5,1.6c-0.6,0.4-1.3,0.7-2,0.9c-0.7,0.2-1.5,0.3-2.2,0.3
		c-0.7,0-1.4-0.1-2.2-0.3c-0.7-0.2-1.4-0.5-2-0.9c-0.6-0.4-1.1-1-1.5-1.6c-0.4-0.7-0.6-1.4-0.6-2.3c0-0.9,0.2-1.7,0.6-2.3
		c0.4-0.7,0.9-1.2,1.5-1.6c0.6-0.4,1.3-0.7,2-1C202.8,12.2,203.6,12,204.3,12"/>
	<path class="st0" d="M225,22.8c0-0.2-0.1-0.3-0.2-0.3c-0.1,0-0.3,0-0.5,0h-9.3v-0.4c0.4,0,0.6-0.1,0.6-0.3v-8.8
		c0-0.2-0.2-0.4-0.6-0.4v-0.4h3.4v0.4c-0.4,0-0.5,0.1-0.5,0.4v7.8h6.5c0.2,0,0.4,0,0.5-0.1c0.1-0.1,0.2-0.2,0.2-0.4h0.4v2.7H225z"/>
	<path class="st0" d="M238.7,14.3c0-0.1-0.1-0.2-0.2-0.3c-0.1-0.1-0.3-0.1-0.6-0.1h-6.3v2.4h3.8c0.3,0,0.5,0,0.6-0.1
		c0.1-0.1,0.2-0.2,0.2-0.4h0.4v2.8h-0.4c0-0.3-0.1-0.5-0.2-0.6c-0.1-0.1-0.3-0.1-0.6-0.1h-3.8v3.8c0,0.1,0.1,0.2,0.2,0.3
		c0.1,0.1,0.2,0.1,0.4,0.1v0.4h-3.3v-0.4c0.3,0,0.5-0.1,0.5-0.3v-8.8c0-0.2-0.2-0.4-0.5-0.4v-0.4h9c0.3,0,0.5,0,0.6-0.1
		c0.1-0.1,0.2-0.2,0.2-0.3h0.4v2.6H238.7z"/>
	<path class="st0" d="M34,24.6l-6,8.5c-1.5,0.3-5.4,1.2-9.3,1.2C6.6,34.3,0.4,26,0.4,17.4C0.4,6.6,8.4,0,19.8,0c4.1,0,7.6,1,9.3,1.2
		c0.2,2.3,0.6,5.4,1,7.9l-1.6,0.4c-1-3.4-2.3-5.6-4.9-6.7c-1.3-0.6-3.1-0.9-5.1-0.9c-8.5,0-12.9,6.8-12.9,14.5c0,9.8,6.8,16,11.8,16
		c6.1,0,8.8-8.7,12.8-13.3L34,24.6z"/>
</g>
<polygon points="35.1,22.4 31.6,17.3 35.1,12.1 38.7,17.3 "/>
<polygon points="36.5,24.6 42.4,33.4 53.6,0.3 "/>
</svg>
